Coordinates
version=1
nRows=43
nColumns=12
inDegrees=yes

Units are S.I. units (second, meters, Newtons, ...)
Angles are in degrees

endheader
time	SC_y	SC_z	SC_x	AC_y	AC_z	AC_x	GH_y	GH_z	GH_yy	EL_x	PS_y
       0.0              -26.76          39.46          4.276          57.78         -5.476         -17.78          33.06           38.9         -76.62          23.27          153.2
  0.002998              -26.77          39.46          4.278          57.78         -5.476         -17.78          33.06           38.9         -76.62          23.26          153.2
  0.005997              -26.77          39.46           4.28          57.79         -5.476         -17.78          33.06           38.9         -76.62          23.26          153.2
  0.008995              -26.77          39.45          4.282          57.79         -5.476         -17.77          33.07           38.9         -76.62          23.26          153.2
   0.01199              -26.78          39.45          4.285          57.79         -5.476         -17.77          33.07           38.9         -76.63          23.26          153.1
   0.01499              -26.78          39.44          4.287          57.79         -5.477         -17.77          33.08           38.9         -76.63          23.25          153.1
   0.01799              -26.79          39.44          4.289          57.79         -5.477         -17.77          33.08           38.9         -76.63          23.25          153.1
   0.02099              -26.79          39.43          4.292           57.8         -5.477         -17.77          33.09           38.9         -76.64          23.25          153.1
   0.02399               -26.8          39.42          4.295           57.8         -5.477         -17.77          33.09          38.89         -76.64          23.25          153.1
   0.02698               -26.8          39.42          4.298           57.8         -5.478         -17.76           33.1          38.89         -76.64          23.24          153.1
   0.02998              -26.81          39.41          4.301          57.81         -5.478         -17.76          33.11          38.89         -76.65          23.24          153.1
   0.03298              -26.82           39.4          4.305          57.81         -5.478         -17.76          33.12          38.89         -76.65          23.23          153.1
   0.03598              -26.82          39.39          4.309          57.81         -5.479         -17.76          33.12          38.89         -76.66          23.23          153.1
   0.03898              -26.83          39.38          4.313          57.82         -5.479         -17.75          33.13          38.89         -76.66          23.23          153.1
   0.04198              -26.84          39.37          4.318          57.82         -5.479         -17.75          33.14          38.89         -76.67          23.22          153.0
   0.04497              -26.85          39.36          4.323          57.82          -5.48         -17.75          33.15          38.89         -76.68          23.22          153.0
   0.04797              -26.86          39.35          4.328          57.83          -5.48         -17.75          33.16          38.89         -76.68          23.21          153.0
   0.05097              -26.87          39.34          4.334          57.83         -5.481         -17.74          33.17          38.88         -76.69           23.2          153.0
   0.05397              -26.88          39.32           4.34          57.84         -5.482         -17.74          33.19          38.88          -76.7           23.2          153.0
   0.05697              -26.89          39.31          4.347          57.85         -5.482         -17.73           33.2          38.88         -76.71          23.19          152.9
   0.05997               -26.9          39.29          4.355          57.85         -5.483         -17.73          33.22          38.88         -76.72          23.18          152.9
   0.06296              -26.92          39.27          4.363          57.86         -5.484         -17.72          33.23          38.88         -76.73          23.17          152.9
   0.06596              -26.94          39.25          4.372          57.87         -5.485         -17.72          33.25          38.87         -76.74          23.16          152.9
   0.06896              -26.95          39.23          4.382          57.88         -5.486         -17.71          33.27          38.87         -76.76          23.15          152.8
   0.07196              -26.97           39.2          4.394          57.89         -5.487          -17.7           33.3          38.87         -76.77          23.14          152.8
   0.07496               -27.0          39.17          4.407           57.9         -5.488         -17.69          33.32          38.86         -76.79          23.13          152.8
   0.07796              -27.02          39.14          4.421          57.91         -5.489         -17.68          33.35          38.86         -76.81          23.11          152.7
   0.08095              -27.05          39.11          4.437          57.93         -5.491         -17.67          33.38          38.86         -76.83          23.09          152.7
   0.08395              -27.08          39.07          4.455          57.94         -5.493         -17.66          33.42          38.85         -76.86          23.08          152.6
   0.08695              -27.12          39.02          4.476          57.96         -5.495         -17.65          33.46          38.84         -76.88          23.05          152.5
   0.08995              -27.16          38.97          4.499          57.98         -5.497         -17.63          33.51          38.84         -76.92          23.03          152.5
   0.09295              -27.21          38.91          4.526          58.01         -5.499         -17.62          33.57          38.83         -76.95           23.0          152.4
   0.09595              -27.27          38.84          4.557          58.04         -5.502          -17.6          33.63          38.82          -77.0          22.97          152.3
   0.09894              -27.33          38.76          4.593          58.07         -5.506         -17.57           33.7          38.81         -77.04          22.93          152.2
    0.1019              -27.41          38.66          4.636          58.11          -5.51         -17.54          33.79           38.8          -77.1          22.88          152.0
    0.1049               -27.5          38.55          4.686          58.15         -5.515         -17.51          33.89          38.79         -77.17          22.83          151.9
    0.1079               -27.6          38.42          4.745          58.21          -5.52         -17.47          34.01          38.77         -77.25          22.77          151.7
    0.1109              -27.73          38.26          4.816          58.27         -5.527         -17.43          34.16          38.75         -77.35          22.69          151.5
    0.1139              -27.89          38.07          4.902          58.35         -5.535         -17.37          34.33          38.73         -77.46           22.6          151.2
    0.1169              -28.07          37.83          5.007          58.44         -5.545          -17.3          34.54           38.7          -77.6          22.49          150.9
    0.1199              -28.31          37.54          5.137          58.56         -5.558         -17.22          34.81          38.66         -77.78          22.35          150.5
    0.1229               -28.6          37.18          5.298          58.71         -5.573         -17.11          35.14          38.62          -78.0          22.18          149.9
    0.1259              -28.96          36.73          5.502          58.89         -5.593         -16.98          35.55          38.56         -78.27          21.96          149.3
